<svg width="18" height="14" viewBox="0 0 18 14" fill="none" xmlns="http://www.w3.org/2000/svg">
   <path d="M9.00001 0C6.47501 0 4.45314 1.15 2.98126 2.51875C1.51876 3.875 0.540637 5.5 0.0781372 6.61562C-0.0249878 6.8625 -0.0249878 7.1375 0.0781372 7.38437C0.540637 8.5 1.51876 10.125 2.98126 11.4812C4.45314 12.85 6.47501 14 9.00001 14C11.525 14 13.5469 12.85 15.0188 11.4812C16.4813 10.1219 17.4594 8.5 17.925 7.38437C18.0281 7.1375 18.0281 6.8625 17.925 6.61562C17.4594 5.5 16.4813 3.875 15.0188 2.51875C13.5469 1.15 11.525 0 9.00001 0ZM13.5 7C13.5 9.48438 11.4844 11.5 9.00001 11.5C6.51564 11.5 4.50001 9.48438 4.50001 7C4.50001 4.51562 6.51564 2.5 9.00001 2.5C11.4844 2.5 13.5 4.51562 13.5 7ZM9.00001 5C9.00001 6.10312 8.10314 7 7.00001 7C6.64064 7 6.30314 6.90625 6.01251 6.7375C6.00626 6.825 6.00001 6.90937 6.00001 7C6.00001 8.65625 7.34376 10 9.00001 10C10.6563 10 12 8.65625 12 7C12 5.34375 10.6563 4 9.00001 4C8.91251 4 8.82501 4.00312 8.73751 4.0125C8.90314 4.30312 9.00001 4.64062 9.00001 5Z" fill="black" />
</svg>